<svg fill="none" height="256" viewBox="0 0 256 256" width="256" xmlns="http://www.w3.org/2000/svg" xmlns:xlink="http://www.w3.org/1999/xlink"><filter id="a" color-interpolation-filters="sRGB" filterUnits="userSpaceOnUse" height="451.431" width="569.558" x="-90.2411" y="-69.7369"><feFlood flood-opacity="0" result="BackgroundImageFix"/><feBlend in="SourceGraphic" in2="BackgroundImageFix" mode="normal" result="shape"/><feGaussianBlur result="effect1_foregroundBlur_2035_1106" stdDeviation="49.2308"/></filter><filter id="b" color-interpolation-filters="sRGB" filterUnits="userSpaceOnUse" height="371.507" width="351.596" x="-160.511" y="-165.987"><feFlood flood-opacity="0" result="BackgroundImageFix"/><feBlend in="SourceGraphic" in2="BackgroundImageFix" mode="normal" result="shape"/><feGaussianBlur result="effect1_foregroundBlur_2035_1106" stdDeviation="49.2308"/></filter><filter id="c" color-interpolation-filters="sRGB" filterUnits="userSpaceOnUse" height="424.452" width="444.851" x="-241.078" y="67.642"><feFlood flood-opacity="0" result="BackgroundImageFix"/><feBlend in="SourceGraphic" in2="BackgroundImageFix" mode="normal" result="shape"/><feGaussianBlur result="effect1_foregroundBlur_2035_1106" stdDeviation="49.2308"/></filter><filter id="d" color-interpolation-filters="sRGB" filterUnits="userSpaceOnUse" height="385.105" width="430.191" x="-20.3968" y="-242.758"><feFlood flood-opacity="0" result="BackgroundImageFix"/><feBlend in="SourceGraphic" in2="BackgroundImageFix" mode="normal" result="shape"/><feGaussianBlur result="effect1_foregroundBlur_2035_1106" stdDeviation="49.2308"/></filter><clipPath id="e"><path d="m0 0h256v256h-256z"/></clipPath><g clip-path="url(#e)"><path d="m0 0h256v256h-256z" fill="#54fff5"/><g filter="url(#a)"><path d="m13.4806 198.605c-42.8082 120.438 186.1804 86.422 306.0264 54.359 122.658-40.705 37.879-220.1371-50.092-224.1082-87.972-3.9711 10.907 82.9682-63.82 107.8002-74.727 24.831-138.6043-88.5977-192.1144 61.949z" fill="#fff"/></g><g filter="url(#b)"><path d="m85.5118-45.8225c-22.4556-61.3535-102.4307 21.8272-139.6113 71.0868-35.4657 53.5836 57.10887 99.8877 93.4203 74.7727 36.3115-25.1143-31.54632-30.0007-9.95-62.6585 21.5963-32.65774 84.2102-6.509 56.141-83.201z" fill="#00fff0" fill-opacity=".67"/></g><g filter="url(#c)"><path d="m96.4796 225.424c-30.6294-103.061-162.5614-48.787-224.6986-8.767-59.771 47.385 82.1479 183.691 141.0915 176.719 58.9436-6.973-47.2843-66.311-10.88548-95.206 36.39878-28.894 132.77898 56.079 94.49258-72.746z" fill="#9d81ff"/></g><g filter="url(#d)"><path d="m282.12-107.353c-66.073-78.678-160.657-13.617-199.6904 28.7483-34.1557 47.9601 141.8454 135.8359 190.6914 120.7761 48.847-15.0599-66.609-46.22178-45.824-75.4593 20.785-29.2376 137.415 24.28224 54.823-74.0651z" fill="#4d94ff"/></g><path clip-rule="evenodd" d="m93.189 152.836h43.485l-49.4654-49.785 50.1014-49.7847 13.645-13.2663h-45.136l-57.4831 57.7773c-2.901 2.9117-2.8861 7.6247.0297 10.5217zm26.141-49.668h-.335l.331-.004zm0 0 49.461 49.781-50.101 49.785-13.645 13.266h45.135l57.484-57.774c2.901-2.912 2.886-7.624-.03-10.521l-44.823-44.537z" fill="#000" fill-rule="evenodd"/></g></svg>